{"title":"The Boondock Saints II All Saints Day (2009) DVDRip XviD-MAX","uid":5379090,"size":1464041202,"categoryP":"video","categoryS":"movies","magnet":"?xt=urn:btih:26a3a78d27ec570e16e934f079b89c85e8aa791d&amp;dn=The+Boondock+Saints+II+All+Saints+Day+%282009%29+DVDRip+XviD-MAX&amp;tr=udp%3A%2F%2Ftracker.openbittorrent.com%3A80&amp;tr=udp%3A%2F%2Fopen.demonii.com%3A1337&amp;tr=udp%3A%2F%2Ftracker.coppersurfer.tk%3A6969&amp;tr=udp%3A%2F%2Fexodus.desync.com%3A6969","seeders":2,"leechers":0,"uploader":"extremezone","files":-1,"time":1266676516,"description":"The Boondock Saints II All Saints Day (2009) DVDRip XviD-MAX\n\nFormat                           : AVI\nFormat/Info                      : Audio Video Interleave\nFile size                        : 1.36 GiB\nDuration                         : 1h 57mn\nOverall bit rate                 : 1 658 Kbps\nWriting application              : VirtualDubMod 1.5.10.2 (build 2542/release)\nWriting library                  : VirtualDubMod build 2542/release\nOriginal source form             : MAX TORRENTZ\nCopyright                        : SIGISMUNT\n\nVideo\nID                               : 0\nFormat                           : MPEG-4 Visual\nFormat profile                   : AdvancedSimple@L5\nFormat settings, BVOP            : Yes\nFormat settings, QPel            : No\nFormat settings, GMC             : No warppoints\nFormat settings, Matrix          : Default (H.263)\nCodec ID                         : XVID\nCodec ID/Hint                    : XviD\nDuration                         : 1h 57mn\nBit rate                         : 1 265 Kbps\nWidth                            : 640 pixels\nHeight                           : 272 pixels\nDisplay aspect ratio             : 2.35:1\nFrame rate                       : 23.976 fps\nResolution                       : 24 bits\nColorimetry                      : 4:2:0\nScan type                        : Progressive\nBits/(Pixel*Frame)               : 0.303\nStream size                      : 1.04 GiB (76%)\nWriting library                  : XviD 1.2.1 (UTC 2008-12-04)\n\nAudio\nID                               : 1\nFormat                           : AC-3\nFormat/Info                      : Audio Coding 3\nCodec ID                         : 2000\nDuration                         : 1h 57mn\nBit rate mode                    : Constant\nBit rate                         : 384 Kbps\nChannel(s)                       : 6 channels\nChannel positions                : Front: L C R, Surround: L R, LFE\nSampling rate                    : 48.0 KHz\nStream size                      : 323 MiB (23%)\nAlignment                        : Split accross interleaves\nInterleave, duration             : 42 ms (1.00 video frame)\nInterleave, preload duration     : 500 ms\n &lt;a href=&quot;\nhttp://www.imdb.com/title/tt1300851/&quot; rel=&quot;nofollow&quot; target=&quot;_NEW&quot;&gt;\nhttp://www.imdb.com/title/tt1300851/&lt;/a&gt;\n\nScreens:\n &lt;a href=&quot;\nhttp://www.postimg.com/image/12000/11432.jpg&quot; rel=&quot;nofollow&quot; target=&quot;_NEW&quot;&gt;\nhttp://www.postimg.com/image/12000/11432.jpg&lt;/a&gt;\n &lt;a href=&quot;\nhttp://www.postimg.com/image/12000/11433.jpg&quot; rel=&quot;nofollow&quot; target=&quot;_NEW&quot;&gt;\nhttp://www.postimg.com/image/12000/11433.jpg&lt;/a&gt;\n &lt;a href=&quot;\nhttp://www.postimg.com/image/12000/11434.jpg&quot; rel=&quot;nofollow&quot; target=&quot;_NEW&quot;&gt;\nhttp://www.postimg.com/image/12000/11434.jpg&lt;/a&gt;\n &lt;a href=&quot;\nhttp://www.postimg.com/image/12000/11435.jpg&quot; rel=&quot;nofollow&quot; target=&quot;_NEW&quot;&gt;\nhttp://www.postimg.com/image/12000/11435.jpg&lt;/a&gt;\n &lt;a href=&quot;\nhttp://www.postimg.com/image/12000/11436.jpg&quot; rel=&quot;nofollow&quot; target=&quot;_NEW&quot;&gt;\nhttp://www.postimg.com/image/12000/11436.jpg&lt;/a&gt;\n\nScreenCaps:\n &lt;a href=&quot;\nhttp://www.postimg.com/image/12000/11437.jpg&quot; rel=&quot;nofollow&quot; target=&quot;_NEW&quot;&gt;\nhttp://www.postimg.com/image/12000/11437.jpg&lt;/a&gt;\n\nThe Boondock Saints II All Saints Day (2009) DVDRip XviD-MAX Torrent Free Download\n &lt;a href=&quot;\nhttp://thepiratebay.se/user/extremezone/0/7&quot; rel=&quot;nofollow&quot; target=&quot;_NEW&quot;&gt;\nhttp://thepiratebay.se/user/extremezone/0/7&lt;/a&gt;","torrent":{"xt":"urn:btih:26a3a78d27ec570e16e934f079b89c85e8aa791d","amp;dn":"The+Boondock+Saints+II+All+Saints+Day+%282009%29+DVDRip+XviD-MAX","amp;tr":["udp%3A%2F%2Ftracker.openbittorrent.com%3A80","udp%3A%2F%2Fopen.demonii.com%3A1337","udp%3A%2F%2Ftracker.coppersurfer.tk%3A6969","udp%3A%2F%2Fexodus.desync.com%3A6969"],"infoHash":"26a3a78d27ec570e16e934f079b89c85e8aa791d","infoHashBuffer":{"type":"Buffer","data":[38,163,167,141,39,236,87,14,22,233,52,240,121,184,156,133,232,170,121,29]},"announce":[],"urlList":[]}}